<svg id="Calque_1" data-name="Calque 1" xmlns="http://www.w3.org/2000/svg" viewBox="0 0 768.53 1349.85"><defs><style>.cls-1{fill:#9400c6;}.cls-2{fill:#dc395d;}.cls-3{fill:#e19f00;}.cls-4{fill:#8cd049;}.cls-5{fill:#5dafda;}.cls-6{fill:none;stroke:#0c0025;stroke-miterlimit:10;}</style></defs><ellipse class="cls-1" cx="694.93" cy="208.29" rx="142.83" ry="98.97" transform="translate(311.16 773.28) rotate(-77.31)"/><ellipse class="cls-2" cx="476.9" cy="190.23" rx="101.95" ry="68.64" transform="translate(158.63 546.47) rotate(-77.31)"/><ellipse class="cls-3" cx="308.04" cy="229.92" rx="82.16" ry="55.31" transform="translate(-11.87 412.72) rotate(-77.31)"/><ellipse class="cls-4" cx="178.75" cy="286.82" rx="70.76" ry="48.63" transform="translate(-160.23 351.82) rotate(-81.1)"/><ellipse class="cls-5" cx="64.83" cy="358.69" rx="53.98" ry="36.34" transform="translate(-327.53 300.02) rotate(-81.1)"/><path class="cls-4" d="M176.73,1416.55c4.26-7.39,125.49-223.19-73.44-604.37a304.21,304.21,0,0,1-34.36-158.3c.21,3.44,6.92,101,148,240.69l0,0c20.89,44.37,40.21,83.95,44.31,109.19C292.94,1141.92,273.88,1292.79,176.73,1416.55Z" transform="translate(-27.96 -67.24)"/><path class="cls-3" d="M562.8,498c-37.2-32.47-101.23-45.43-187.65-31.09C186.38,492.61,149.23,601.53,157.48,709.77c-.54,54.42,31,124.11,59.5,184.8C75.85,754.91,69.14,657.32,68.93,653.88v-.1c.12-2,.26-4,.42-6a290.39,290.39,0,0,1,20.6-87c35.83-87.68,117-176.25,297.78-187.18h0C390.23,373.81,479.38,382.67,562.8,498Z" transform="translate(-27.96 -67.24)"/><path class="cls-1" d="M423.67,869C603.61,708.58,637.9,563.53,562.82,498a0,0,0,0,0,0,0c-83.42-115.3-172.57-124.16-175-124.39q12.93-.78,26.57-1C812.91,365.56,677.73,775.77,423.67,869Z" transform="translate(-27.96 -67.24)"/><path class="cls-6" d="M176.64,1416.69s0,0,0,0" transform="translate(-27.96 -67.24)"/></svg>